<?xml version="1.0" encoding="UTF-8" standalone="no"?>
<!-- Created with Inkscape (http://www.inkscape.org/) -->

<svg
   width="16"
   height="16"
   viewBox="0 0 4.2333332 4.2333333"
   version="1.1"
   id="svg253"
   inkscape:version="1.2 (dc2aedaf03, 2022-05-15)"
   sodipodi:docname="rhytm.svg"
   xmlns:inkscape="http://www.inkscape.org/namespaces/inkscape"
   xmlns:sodipodi="http://sodipodi.sourceforge.net/DTD/sodipodi-0.dtd"
   xmlns="http://www.w3.org/2000/svg"
   xmlns:svg="http://www.w3.org/2000/svg">
  <sodipodi:namedview
     id="namedview255"
     pagecolor="#505050"
     bordercolor="#ffffff"
     borderopacity="1"
     inkscape:showpageshadow="0"
     inkscape:pageopacity="0"
     inkscape:pagecheckerboard="1"
     inkscape:deskcolor="#505050"
     inkscape:document-units="mm"
     showgrid="false"
     inkscape:zoom="25.961425"
     inkscape:cx="5.0652072"
     inkscape:cy="8.1274428"
     inkscape:current-layer="layer1"
     showguides="true" />
  <defs
     id="defs250">
    <inkscape:path-effect
       effect="powerstroke"
       id="path-effect8527"
       is_visible="true"
       lpeversion="1"
       offset_points="0.98169214,0.064805843"
       not_jump="true"
       sort_points="true"
       interpolator_type="CentripetalCatmullRom"
       interpolator_beta="0.75"
       start_linecap_type="round"
       linejoin_type="spiro"
       miter_limit="4"
       scale_width="1"
       end_linecap_type="round" />
    <inkscape:path-effect
       effect="simplify"
       id="path-effect8525"
       is_visible="true"
       lpeversion="1"
       steps="1"
       threshold="0.014201184"
       smooth_angles="0"
       helper_size="0"
       simplify_individual_paths="false"
       simplify_just_coalesce="false"
       step="1" />
    <inkscape:path-effect
       effect="powerstroke"
       id="path-effect8520"
       is_visible="true"
       lpeversion="1"
       offset_points="1.4399005,0.044843405"
       not_jump="true"
       sort_points="true"
       interpolator_type="CentripetalCatmullRom"
       interpolator_beta="0.75"
       start_linecap_type="round"
       linejoin_type="spiro"
       miter_limit="4"
       scale_width="1"
       end_linecap_type="round" />
    <inkscape:path-effect
       effect="simplify"
       id="path-effect8518"
       is_visible="true"
       lpeversion="1"
       steps="1"
       threshold="0.014201184"
       smooth_angles="0"
       helper_size="0"
       simplify_individual_paths="false"
       simplify_just_coalesce="false"
       step="1" />
    <inkscape:path-effect
       effect="powerstroke"
       id="path-effect8513"
       is_visible="true"
       lpeversion="1"
       offset_points="0.11359229,0.044843405"
       not_jump="true"
       sort_points="true"
       interpolator_type="CentripetalCatmullRom"
       interpolator_beta="0.75"
       start_linecap_type="round"
       linejoin_type="spiro"
       miter_limit="4"
       scale_width="1"
       end_linecap_type="round" />
    <inkscape:path-effect
       effect="simplify"
       id="path-effect8511"
       is_visible="true"
       lpeversion="1"
       steps="1"
       threshold="0.6"
       smooth_angles="0"
       helper_size="0"
       simplify_individual_paths="false"
       simplify_just_coalesce="false"
       step="1" />
    <inkscape:path-effect
       effect="powerstroke"
       id="path-effect8506"
       is_visible="true"
       lpeversion="1"
       offset_points="0.32445903,0.044843405"
       not_jump="true"
       sort_points="true"
       interpolator_type="CentripetalCatmullRom"
       interpolator_beta="0.75"
       start_linecap_type="round"
       linejoin_type="spiro"
       miter_limit="4"
       scale_width="1"
       end_linecap_type="round" />
    <inkscape:path-effect
       effect="simplify"
       id="path-effect8504"
       is_visible="true"
       lpeversion="1"
       steps="1"
       threshold="0.6"
       smooth_angles="0"
       helper_size="0"
       simplify_individual_paths="false"
       simplify_just_coalesce="false"
       step="1" />
    <inkscape:path-effect
       effect="powerstroke"
       id="path-effect8499"
       is_visible="true"
       lpeversion="1"
       offset_points="0.74787078,0.044843405"
       not_jump="true"
       sort_points="true"
       interpolator_type="CentripetalCatmullRom"
       interpolator_beta="0.75"
       start_linecap_type="round"
       linejoin_type="spiro"
       miter_limit="4"
       scale_width="1"
       end_linecap_type="round" />
    <inkscape:path-effect
       effect="simplify"
       id="path-effect8497"
       is_visible="true"
       lpeversion="1"
       steps="1"
       threshold="0.031384615"
       smooth_angles="0"
       helper_size="0"
       simplify_individual_paths="false"
       simplify_just_coalesce="false"
       step="1" />
    <inkscape:path-effect
       effect="powerstroke"
       id="path-effect8492"
       is_visible="true"
       lpeversion="1"
       offset_points="0.78951075,0.044843405"
       not_jump="true"
       sort_points="true"
       interpolator_type="CentripetalCatmullRom"
       interpolator_beta="0.75"
       start_linecap_type="round"
       linejoin_type="spiro"
       miter_limit="4"
       scale_width="1"
       end_linecap_type="round" />
    <inkscape:path-effect
       effect="simplify"
       id="path-effect8490"
       is_visible="true"
       lpeversion="1"
       steps="1"
       threshold="0.031384615"
       smooth_angles="0"
       helper_size="0"
       simplify_individual_paths="false"
       simplify_just_coalesce="false"
       step="1" />
    <inkscape:path-effect
       effect="powerstroke"
       id="path-effect8485"
       is_visible="true"
       lpeversion="1"
       offset_points="0.53705807,0.028536712"
       not_jump="true"
       sort_points="true"
       interpolator_type="CentripetalCatmullRom"
       interpolator_beta="0.75"
       start_linecap_type="round"
       linejoin_type="spiro"
       miter_limit="4"
       scale_width="1"
       end_linecap_type="round" />
    <inkscape:path-effect
       effect="simplify"
       id="path-effect8483"
       is_visible="true"
       lpeversion="1"
       steps="1"
       threshold="0.031384615"
       smooth_angles="0"
       helper_size="0"
       simplify_individual_paths="false"
       simplify_just_coalesce="false"
       step="1" />
    <inkscape:path-effect
       effect="powerstroke"
       id="path-effect8478"
       is_visible="true"
       lpeversion="1"
       offset_points="1.230064,0.028536712"
       not_jump="true"
       sort_points="true"
       interpolator_type="CentripetalCatmullRom"
       interpolator_beta="0.75"
       start_linecap_type="round"
       linejoin_type="spiro"
       miter_limit="4"
       scale_width="1"
       end_linecap_type="round" />
    <inkscape:path-effect
       effect="simplify"
       id="path-effect8476"
       is_visible="true"
       lpeversion="1"
       steps="1"
       threshold="0.013544213"
       smooth_angles="0"
       helper_size="0"
       simplify_individual_paths="false"
       simplify_just_coalesce="false"
       step="1" />
    <inkscape:path-effect
       effect="powerstroke"
       id="path-effect8471"
       is_visible="true"
       lpeversion="1"
       offset_points="1.3272852,0.028536712"
       not_jump="true"
       sort_points="true"
       interpolator_type="CentripetalCatmullRom"
       interpolator_beta="0.75"
       start_linecap_type="round"
       linejoin_type="spiro"
       miter_limit="4"
       scale_width="1"
       end_linecap_type="round" />
    <inkscape:path-effect
       effect="simplify"
       id="path-effect8469"
       is_visible="true"
       lpeversion="1"
       steps="1"
       threshold="0.0092307692"
       smooth_angles="0"
       helper_size="0"
       simplify_individual_paths="false"
       simplify_just_coalesce="false"
       step="1" />
    <inkscape:path-effect
       effect="powerstroke"
       id="path-effect8464"
       is_visible="true"
       lpeversion="1"
       offset_points="1.2215396,0.028536712"
       not_jump="true"
       sort_points="true"
       interpolator_type="CentripetalCatmullRom"
       interpolator_beta="0.75"
       start_linecap_type="round"
       linejoin_type="spiro"
       miter_limit="4"
       scale_width="1"
       end_linecap_type="round" />
    <inkscape:path-effect
       effect="simplify"
       id="path-effect8462"
       is_visible="true"
       lpeversion="1"
       steps="1"
       threshold="0.0092307692"
       smooth_angles="0"
       helper_size="0"
       simplify_individual_paths="false"
       simplify_just_coalesce="false"
       step="1" />
    <inkscape:path-effect
       effect="powerstroke"
       id="path-effect8457"
       is_visible="true"
       lpeversion="1"
       offset_points="0.94953015,0.028536712"
       not_jump="true"
       sort_points="true"
       interpolator_type="CentripetalCatmullRom"
       interpolator_beta="0.75"
       start_linecap_type="round"
       linejoin_type="spiro"
       miter_limit="4"
       scale_width="1"
       end_linecap_type="round" />
    <inkscape:path-effect
       effect="simplify"
       id="path-effect8455"
       is_visible="true"
       lpeversion="1"
       steps="1"
       threshold="0.0092307692"
       smooth_angles="0"
       helper_size="0"
       simplify_individual_paths="false"
       simplify_just_coalesce="false"
       step="1" />
    <inkscape:path-effect
       effect="powerstroke"
       id="path-effect8450"
       is_visible="true"
       lpeversion="1"
       offset_points="1.9222154,0.028536712"
       not_jump="true"
       sort_points="true"
       interpolator_type="CentripetalCatmullRom"
       interpolator_beta="0.75"
       start_linecap_type="round"
       linejoin_type="spiro"
       miter_limit="4"
       scale_width="1"
       end_linecap_type="round" />
    <inkscape:path-effect
       effect="simplify"
       id="path-effect8448"
       is_visible="true"
       lpeversion="1"
       steps="1"
       threshold="0.0092307692"
       smooth_angles="0"
       helper_size="0"
       simplify_individual_paths="false"
       simplify_just_coalesce="false"
       step="1" />
    <inkscape:path-effect
       effect="powerstroke"
       id="path-effect8443"
       is_visible="true"
       lpeversion="1"
       offset_points="0.84268187,0.028536712"
       not_jump="true"
       sort_points="true"
       interpolator_type="CentripetalCatmullRom"
       interpolator_beta="0.75"
       start_linecap_type="round"
       linejoin_type="spiro"
       miter_limit="4"
       scale_width="1"
       end_linecap_type="round" />
    <inkscape:path-effect
       effect="simplify"
       id="path-effect8441"
       is_visible="true"
       lpeversion="1"
       steps="1"
       threshold="0.0092307692"
       smooth_angles="0"
       helper_size="0"
       simplify_individual_paths="false"
       simplify_just_coalesce="false"
       step="1" />
    <inkscape:path-effect
       effect="powerstroke"
       id="path-effect8436"
       is_visible="true"
       lpeversion="1"
       offset_points="0.5459166,0.028536712"
       not_jump="true"
       sort_points="true"
       interpolator_type="CentripetalCatmullRom"
       interpolator_beta="0.75"
       start_linecap_type="round"
       linejoin_type="spiro"
       miter_limit="4"
       scale_width="1"
       end_linecap_type="round" />
    <inkscape:path-effect
       effect="simplify"
       id="path-effect8434"
       is_visible="true"
       lpeversion="1"
       steps="1"
       threshold="0.0092307692"
       smooth_angles="0"
       helper_size="0"
       simplify_individual_paths="false"
       simplify_just_coalesce="false"
       step="1" />
    <inkscape:path-effect
       effect="powerstroke"
       id="path-effect8429"
       is_visible="true"
       lpeversion="1"
       offset_points="1.5879027,0.028536712"
       not_jump="true"
       sort_points="true"
       interpolator_type="CentripetalCatmullRom"
       interpolator_beta="0.75"
       start_linecap_type="round"
       linejoin_type="spiro"
       miter_limit="4"
       scale_width="1"
       end_linecap_type="round" />
    <inkscape:path-effect
       effect="simplify"
       id="path-effect8427"
       is_visible="true"
       lpeversion="1"
       steps="1"
       threshold="0.0092307692"
       smooth_angles="0"
       helper_size="0"
       simplify_individual_paths="false"
       simplify_just_coalesce="false"
       step="1" />
  </defs>
  <g
     inkscape:label="Camada 1"
     inkscape:groupmode="layer"
     id="layer1">
    <rect
       style="fill:#376181;fill-opacity:1;stroke:#ffffff;stroke-width:0.245142;stroke-linecap:round;stroke-linejoin:round;stroke-dasharray:none;stroke-opacity:1"
       id="rect10875"
       width="1.9940959"
       height="1.9940952"
       x="0.12257112"
       y="0.12257114" />
    <rect
       style="fill:#376181;fill-opacity:1;stroke:#ffffff;stroke-width:0.245142;stroke-linecap:round;stroke-linejoin:round;stroke-dasharray:none;stroke-opacity:1"
       id="rect11037"
       width="1.9940959"
       height="1.9940952"
       x="2.1166661"
       y="2.116667" />
    <rect
       style="fill:#2b323c;fill-opacity:1;stroke:#ffffff;stroke-width:0.245142;stroke-linecap:round;stroke-linejoin:round;stroke-dasharray:none;stroke-opacity:1"
       id="rect11043"
       width="1.9940959"
       height="1.9940952"
       x="-4.1107621"
       y="-2.1166661"
       transform="scale(-1)" />
    <rect
       style="fill:#2b323c;fill-opacity:1;stroke:#ffffff;stroke-width:0.245142;stroke-linecap:round;stroke-linejoin:round;stroke-dasharray:none;stroke-opacity:1"
       id="rect11051"
       width="1.9940959"
       height="1.9940952"
       x="-2.1166668"
       y="-4.1107616"
       transform="scale(-1)" />
    <path
       d="m 2.244926,2.4945642 c 0.052843,-0.00485 0.1008034,-0.01864 0.1422678,-0.038985 0.04977,-0.02442 0.088672,-0.057453 0.1177927,-0.094331 C 2.5428095,2.3133492 2.5628155,2.2608419 2.5730285,2.213229 2.5918115,2.125651 2.450992,2.0993678 2.4322084,2.186945 c -0.0072,0.033583 -0.020475,0.066514 -0.042848,0.094846 -0.017019,0.021552 -0.039595,0.040782 -0.069019,0.055218 -0.02469,0.012115 -0.04258,0.013104 -0.077377,0.016296 m -0.1330457,2e-7 c -0.031372,-0.00693 -0.041636,-0.017347 -0.071079,-0.034527 -0.026829,-0.015654 -0.051334,-0.035687 -0.070628,-0.060011 -0.017721,-0.022341 -0.031434,-0.048791 -0.038071,-0.079542 -0.00531,-0.024611 -0.00636,-0.053248 -8.35e-5,-0.086121 0.00104,-0.00546 0.00229,-0.011087 0.00379,-0.016899 0.015958,-0.049226 0.048667,-0.1034544 0.1039911,-0.1536057 0.025099,-0.022752 0.047764,-0.040577 0.081653,-0.060281 m 0.1484478,-0.065901 c 0.065403,-0.025332 0.090991,-0.025153 0.1692147,-0.030997 0.068441,-0.00512 0.1381385,-9.389e-4 0.2019005,0.014679 v 0 c 0.064211,0.032289 0.1249171,0.076951 0.176786,0.1321283 0.050447,0.053665 0.091864,0.1166531 0.1183335,0.1849642 0.025126,0.064843 0.03659,0.1340681 0.029303,0.2031911 -0.00695,0.065934 -0.031117,0.1332425 -0.079103,0.1973249 C 2.7933727,2.6065564 2.6688564,2.7185182 2.524438,2.8000365 2.4553414,2.8390382 2.3194565,2.8937356 2.243654,2.9148507 m -0.155971,0.00548 C 1.9774985,2.8876163 1.8721284,2.8347435 1.7777168,2.7656037 1.6824736,2.695855 1.5990602,2.6100125 1.5343287,2.5134074 1.4705841,2.4182749 1.4253183,2.3132219 1.4048228,2.2040101 1.3846157,2.0963354 1.3884364,1.9843748 1.4226948,1.8735324 1.460014,1.7759061 1.5171151,1.6865418 1.5884161,1.6065392 1.6592306,1.5270824 1.7440373,1.4568807 1.8385596,1.3934009 1.9136017,1.3430036 2.0415803,1.283662 2.1245056,1.241427 m 0.163386,-0.07841 C 2.336797,1.1394506 2.3986583,1.1080036 2.4635514,1.0809433 2.5468693,1.04546 2.628421,0.99578194 2.7015474,0.93588713 2.7745439,0.87609865 2.8401242,0.80532485 2.8902281,0.72722503 2.9403153,0.64915113 2.9755988,0.56268424 2.9861993,0.47203125 2.9968766,0.3807217 2.9822909,0.28660258 2.9345855,0.19519875 2.9088464,0.15105842 2.8793142,0.11708194 2.8451321,0.09079091 2.8107964,0.06438178 2.7727897,0.04652495 2.7329553,0.03652043 2.6931742,0.02652929 2.652619,0.02462121 2.6131763,0.02889605 2.5736932,0.03317533 2.5351392,0.04365872 2.4988492,0.05864074 2.4261889,0.08863802 2.3601485,0.13764609 2.3099837,0.19690984 v 0 c -0.049326,0.0582739 -0.085183,0.12870621 -0.095553,0.2043158 v 0 C 2.1496636,0.6116597 2.1385236,0.82606859 2.1379541,1.0307383 2.1373418,1.25107 2.1480924,1.4461782 2.1307631,1.6497382 2.1013566,2.2894295 2.0942819,2.9636428 2.0817758,3.551235 c -0.00454,0.053256 -0.015253,0.1155857 -0.032604,0.1761537 -0.018134,0.063297 -0.042837,0.1223441 -0.074017,0.1721505 -0.032755,0.052323 -0.070957,0.091801 -0.1136504,0.1174363 -0.02213,0.013288 -0.045707,0.02302 -0.070959,0.029055 -0.026078,0.00623 -0.054696,0.0087 -0.086278,0.00658 -0.016608,-0.00205 -0.034403,-0.00703 -0.049857,-0.013621 -0.016102,-0.00687 -0.030187,-0.015722 -0.042404,-0.025918 -0.026292,-0.021942 -0.044678,-0.050736 -0.055456,-0.081544 -0.01221,-0.034902 -0.014301,-0.071081 -0.00907,-0.1036917 0.00624,-0.038915 0.022482,-0.07153 0.043136,-0.096788 0.058069,-0.07101 -0.056112,-0.1522655 -0.1141806,-0.081255 -0.034852,0.042619 -0.06105,0.096236 -0.070988,0.1582311 -0.00827,0.051535 -0.00509,0.1088516 0.014581,0.1650661 0.017347,0.049588 0.048225,0.099765 0.096228,0.1398266 0.022419,0.01871 0.048536,0.035147 0.078403,0.047895 0.028731,0.012263 0.060633,0.020983 0.095497,0.025072 0.049792,0.00344 0.093987,-2.82e-5 0.1360303,-0.010078 0.040736,-0.00974 0.078459,-0.025414 0.1130483,-0.046182 0.066296,-0.039808 0.1188785,-0.096945 0.1599343,-0.1625262 0.039095,-0.06245 0.068138,-0.1331854 0.088746,-0.2051219 0.019787,-0.069067 0.031867,-0.1395445 0.037244,-0.2042026 0.01251,-0.5692109 0.012299,-1.2650122 0.04207,-1.8944776 0.017743,-0.2079472 0.013746,-0.420958 0.014333,-0.6322125 5.65e-4,-0.20333186 0.011928,-0.40404182 0.072407,-0.59775154 0.00116,-0.003711 0.00197,-0.007509 0.00243,-0.0113514 0.00581,-0.0488541 0.029357,-0.0984133 0.066292,-0.1420484 0.036621,-0.0432627 0.084324,-0.0781624 0.1342748,-0.0987842 0.024687,-0.0101915 0.049275,-0.0166315 0.072782,-0.0191792 0.023369,-0.002532 0.045478,-0.001208 0.065871,0.003913 0.020198,0.005073 0.039752,0.0141199 0.058153,0.0282732 0.018452,0.0141921 0.036753,0.0343073 0.053224,0.0624575 0.033702,0.0647395 0.044337,0.13332841 0.036438,0.20088805 -0.00794,0.0679731 -0.034859,0.13611587 -0.076436,0.20092499 -0.041571,0.0648 -0.097064,0.12507158 -0.1602035,0.17678586 -0.063258,0.0518117 -0.1289662,0.098003 -0.1982385,0.12750628 -0.06215,0.0259167 -0.091291,0.0364511 -0.1286576,0.053214 M 2.1333398,1.0876991 C 2.0410521,1.1341529 1.8395303,1.2276734 1.7546535,1.2846755 1.6525982,1.3532143 1.5581966,1.4308919 1.4779868,1.5208906 c -0.08103,0.090919 -0.1470994,0.1938912 -0.1919494,0.3116602 -0.042066,0.1356597 -0.04637,0.2682988 -0.022674,0.3945618 0.023976,0.1277578 0.076567,0.2489247 0.149188,0.357305 0.07374,0.1100493 0.168449,0.2074451 0.2764877,0.2865644 0.1099999,0.080556 0.2474788,0.1479961 0.3787753,0.1855875 m 0.1839925,-0.0042 C 2.3410177,3.027515 2.5209576,2.9585912 2.5987887,2.9146586 2.7607978,2.8232112 2.8979569,2.6993243 2.9998948,2.5772302 3.0647323,2.4907996 3.0971358,2.4014173 3.1064031,2.3134952 3.1160486,2.2219839 3.1007241,2.1329149 3.0692357,2.051652 3.0361753,1.9663322 2.9850603,1.8890483 2.923819,1.8239006 2.8586088,1.7545307 2.7814716,1.6983272 2.6988755,1.6580512 c -0.00444,-0.00217 -0.00912,-0.0039 -0.013951,-0.00516 -0.084774,-0.022084 -0.1744893,-0.027349 -0.2592315,-0.021018 -0.093667,0.007 -0.086817,0.00514 -0.1532852,0.026824 M 2.1099193,1.719188 C 2.0541813,1.746038 1.964369,1.802401 1.9377596,1.8265221 1.8649766,1.8925001 1.8193248,1.9665117 1.795257,2.0413066 c -0.0032,0.011993 -0.00504,0.020218 -0.00658,0.028296 -0.00937,0.049059 -0.00825,0.094645 6.809e-4,0.1360668 0.011165,0.051737 0.034328,0.09612 0.063415,0.1327888 0.031393,0.039575 0.069952,0.070585 0.1099145,0.093904 0.043858,0.025591 0.090581,0.04266 0.1358428,0.052653"
       id="path-1"
       style="display:inline;fill:#0092ff;fill-opacity:1;fill-rule:nonzero;stroke:#0092ff;stroke-width:0.0535086;stroke-linecap:round;stroke-linejoin:round;stroke-dasharray:none;stroke-opacity:1"
       sodipodi:nodetypes="cssscscccscsczccccssssscsccssscsscccssscsssssssssccsssscsssssssssscssssccsssssssscssscccsscsssccscssssssccscssssc"
       inkscape:label="letra" />
  </g>
</svg>
